<svg width="41" height="41" viewBox="0 0 41 41" fill="none" xmlns="http://www.w3.org/2000/svg">
<g clip-path="url(#clip0_29_2551)">
<mask id="mask0_29_2551" style="mask-type:luminance" maskUnits="userSpaceOnUse" x="0" y="0" width="41" height="41">
<path d="M40.7257 0.617188H0.880188V40.4627H40.7257V0.617188Z" fill="white"/>
</mask>
<g mask="url(#mask0_29_2551)">
<path d="M0.880188 9.26584C0.880188 4.48933 4.75233 0.617188 9.52884 0.617188H32.077C36.8535 0.617188 40.7256 4.48933 40.7256 9.26584V18.4646V31.8139C40.7256 36.5905 36.8535 40.4627 32.077 40.4627H9.52884C4.75233 40.4627 0.880188 36.5905 0.880188 31.8141V9.26584Z" fill="#FFFFFE"/>
<path d="M22.8792 0.617188H32.077C36.8535 0.617188 40.7256 4.48933 40.7256 9.26584V18.4646H26.5857C24.5386 18.4646 22.8792 16.8051 22.8792 14.758V0.617188Z" fill="#4368E3"/>
<path d="M22.8782 0.617188L40.7256 18.4647H25.7242C24.1523 18.4647 22.8782 17.1904 22.8782 15.6185V0.617188Z" fill="white"/>
<path d="M23.8039 0.618408L40.7256 17.5478V18.497L22.8741 0.618408H23.8039Z" fill="#C24228"/>
<path fill-rule="evenodd" clip-rule="evenodd" d="M0.903381 29.1699V31.8723C0.903381 36.6488 4.77552 40.521 9.55203 40.521H32.1003C36.8768 40.521 40.749 36.6488 40.749 31.8723V29.1699C40.749 33.9464 36.8768 37.8186 32.1003 37.8186H9.55203C4.77552 37.8186 0.903381 33.9464 0.903381 29.1699Z" fill="#CCCCCB"/>
<path fill-rule="evenodd" clip-rule="evenodd" d="M9.55179 0.674805C4.77526 0.674805 0.903137 4.54694 0.903137 9.32345V9.55138C1.37023 5.21557 5.04169 1.8397 9.50161 1.8397H32.1001C36.8766 1.8397 40.7487 5.71183 40.7487 10.4884V9.32345C40.7487 4.54694 36.8766 0.674805 32.1001 0.674805H9.55179Z" fill="white" fill-opacity="0.3"/>
<path fill-rule="evenodd" clip-rule="evenodd" d="M22.8147 0.618408V15.6338C22.8147 17.2117 24.094 18.4909 25.6719 18.4909H40.7837V19.572H25.6719C23.4969 19.572 21.7336 17.8088 21.7336 15.6338V0.618408H22.8147Z" fill="#CCCCCB"/>
</g>
</g>
<defs>
<clipPath id="clip0_29_2551">
<rect width="40" height="39.8456" fill="white" transform="translate(0.830017 0.617188)"/>
</clipPath>
</defs>
</svg>
