<svg width="41" height="41" viewBox="0 0 41 41" fill="none" xmlns="http://www.w3.org/2000/svg">
<g clip-path="url(#clip0_29_2488)">
<path d="M0.190308 9.47873C0.190308 4.70222 4.06243 0.830078 8.83896 0.830078H31.3871C36.1637 0.830078 40.0358 4.70222 40.0358 9.47873V18.6775V32.0268C40.0358 36.8034 36.1637 40.6756 31.3871 40.6756H8.83896C4.06245 40.6756 0.190308 36.8034 0.190308 32.027V9.47873Z" fill="white"/>
<path d="M0.190186 9.47873C0.190186 4.7022 4.06233 0.830078 8.83883 0.830078H31.3871C36.1636 0.830078 40.0357 4.70222 40.0357 9.47873V12.5347H0.190186V9.47873Z" fill="#CF74A2"/>
<path d="M12.5377 10.0907L14.4498 4.77832H15.6729L17.5849 10.0907H16.5202L16.1075 8.86396H14.015L13.5987 10.0907H12.5377ZM14.2582 8.10135H15.8607L15.275 6.36984C15.2087 6.16845 15.1436 5.94003 15.0797 5.68461H15.0429C14.9766 5.94003 14.9103 6.16845 14.8439 6.36984L14.2582 8.10135Z" fill="#CBCBCB"/>
<path d="M18.5132 10.0912V4.78247H20.5248C20.9251 4.78247 21.2639 4.84879 21.5414 4.98141C21.819 5.11158 22.029 5.29824 22.1716 5.54139C22.314 5.78454 22.3852 6.06698 22.3852 6.38873C22.3852 6.71291 22.314 6.99904 22.1716 7.2471C22.0315 7.49517 21.8202 7.68673 21.5379 7.82182C21.2579 7.9569 20.9201 8.02445 20.5248 8.02445H19.4784V10.0912H18.5132ZM20.44 7.225C20.6488 7.225 20.8256 7.19184 20.9705 7.12553C21.1178 7.05921 21.2309 6.96466 21.3095 6.84185C21.3904 6.71906 21.431 6.56802 21.431 6.38873C21.431 6.21435 21.3916 6.06698 21.313 5.94662C21.2346 5.82629 21.1203 5.73541 20.9705 5.67401C20.8231 5.61262 20.6463 5.58191 20.44 5.58191H19.4784V7.225H20.44Z" fill="#CBCBCB"/>
<path d="M23.4056 10.0907V4.77832H25.675C26.0311 4.77832 26.3357 4.83849 26.5887 4.95885C26.8416 5.07919 27.0344 5.25111 27.167 5.47461C27.2997 5.69812 27.3659 5.95968 27.3659 6.25932C27.3659 6.47054 27.328 6.6621 27.2518 6.83403C27.1781 7.00595 27.0688 7.14963 26.9239 7.26507C26.7789 7.37804 26.6058 7.45787 26.4044 7.50453V7.534C26.6893 7.5954 26.9029 7.73049 27.0455 7.93925C27.1903 8.14802 27.2677 8.43537 27.2776 8.80132C27.2776 8.83325 27.2776 8.86396 27.2776 8.89342C27.2801 8.92044 27.2824 8.94992 27.2849 8.98184C27.2948 9.24709 27.3144 9.45954 27.3439 9.61919C27.3734 9.77637 27.4114 9.90654 27.458 10.0097V10.0907H26.4671C26.4253 9.99004 26.3922 9.86847 26.3676 9.72603C26.3431 9.58357 26.3221 9.39937 26.3049 9.17341C26.3025 9.13166 26.3 9.08868 26.2975 9.04447C26.2951 9.00027 26.2927 8.95483 26.2903 8.90816C26.2829 8.66992 26.2447 8.48326 26.176 8.34817C26.1097 8.2131 26.0115 8.11854 25.8813 8.06451C25.7511 8.00802 25.5817 7.97977 25.3729 7.97977H24.4002V10.0907H23.4056ZM25.5056 7.17665C25.6824 7.17665 25.8347 7.14717 25.9624 7.08824C26.0924 7.02929 26.1931 6.93965 26.2645 6.81929C26.3381 6.6965 26.3749 6.5479 26.3749 6.37352C26.3749 6.19668 26.3369 6.04933 26.2608 5.93143C26.1871 5.81355 26.0852 5.72759 25.955 5.67355C25.8273 5.61953 25.6775 5.5925 25.5056 5.5925H24.4002V7.17665H25.5056Z" fill="#CBCBCB"/>
<path d="M12.5376 9.78239L14.4496 4.46997H15.6728L17.5848 9.78239H16.5201L16.1074 8.55561H14.0149L13.5986 9.78239H12.5376ZM14.2581 7.793H15.8606L15.2749 6.06149C15.2085 5.8601 15.1435 5.63169 15.0796 5.37626H15.0428C14.9765 5.63169 14.9101 5.8601 14.8438 6.06149L14.2581 7.793Z" fill="white"/>
<path d="M18.5132 9.78236V4.47363H20.5248C20.9251 4.47363 21.2639 4.53995 21.5414 4.67257C21.819 4.80274 22.029 4.9894 22.1716 5.23255C22.314 5.4757 22.3852 5.75814 22.3852 6.07989C22.3852 6.40407 22.314 6.6902 22.1716 6.93827C22.0315 7.18633 21.8202 7.3779 21.5379 7.51298C21.2579 7.64806 20.9201 7.71561 20.5248 7.71561H19.4784V9.78236H18.5132ZM20.44 6.91617C20.6488 6.91617 20.8256 6.88301 20.9705 6.81669C21.1178 6.75037 21.2309 6.65583 21.3095 6.53301C21.3904 6.41022 21.431 6.25918 21.431 6.07989C21.431 5.90551 21.3916 5.75814 21.313 5.63779C21.2346 5.51745 21.1203 5.42658 20.9705 5.36517C20.8231 5.30378 20.6463 5.27308 20.44 5.27308H19.4784V6.91617H20.44Z" fill="white"/>
<path d="M23.4056 9.78239V4.46997H25.675C26.0311 4.46997 26.3357 4.53014 26.5887 4.6505C26.8416 4.77084 27.0344 4.94276 27.167 5.16626C27.2997 5.38977 27.3659 5.65133 27.3659 5.95097C27.3659 6.16219 27.328 6.35375 27.2518 6.52568C27.1781 6.6976 27.0688 6.84128 26.9239 6.95672C26.7789 7.06969 26.6058 7.14952 26.4044 7.19618V7.22565C26.6893 7.28705 26.9029 7.42214 27.0455 7.6309C27.1903 7.83967 27.2677 8.12702 27.2776 8.49297C27.2776 8.52491 27.2776 8.55561 27.2776 8.58507C27.2801 8.61209 27.2824 8.64157 27.2849 8.67349C27.2948 8.93874 27.3144 9.15119 27.3439 9.31084C27.3734 9.46803 27.4114 9.59819 27.458 9.70134V9.78239H26.4671C26.4253 9.68169 26.3922 9.56012 26.3676 9.41768C26.3431 9.27522 26.3221 9.09102 26.3049 8.86506C26.3025 8.82331 26.3 8.78033 26.2975 8.73612C26.2951 8.69192 26.2927 8.64648 26.2903 8.59981C26.2829 8.36157 26.2447 8.17491 26.176 8.03982C26.1097 7.90475 26.0115 7.81019 25.8813 7.75616C25.7511 7.69967 25.5817 7.67142 25.3729 7.67142H24.4002V9.78239H23.4056ZM25.5056 6.8683C25.6824 6.8683 25.8347 6.83882 25.9624 6.77989C26.0924 6.72094 26.1931 6.6313 26.2645 6.51094C26.3381 6.38815 26.3749 6.23955 26.3749 6.06517C26.3749 5.88833 26.3369 5.74098 26.2608 5.62308C26.1871 5.5052 26.0852 5.41924 25.955 5.3652C25.8273 5.31118 25.6775 5.28415 25.5056 5.28415H24.4002V6.8683H25.5056Z" fill="white"/>
<path d="M14.6536 34.2343C13.2341 34.2343 12.0249 33.9012 11.0257 33.2351C10.0266 32.5611 9.26928 31.5897 8.75386 30.3209C8.23843 29.0522 7.98071 27.5217 7.98071 25.7296V25.0635C7.98071 23.2635 8.23843 21.7291 8.75386 20.4604C9.26928 19.1837 10.0226 18.2122 11.0138 17.5461C12.013 16.8721 13.2222 16.5352 14.6417 16.5352C16.0611 16.5352 17.2665 16.8681 18.2577 17.5342C19.2489 18.2003 19.9982 19.1718 20.5057 20.4485C21.0132 21.7251 21.2669 23.2635 21.2669 25.0635V25.7296C21.2669 27.5217 21.0132 29.0561 20.5057 30.3328C19.9982 31.6016 19.2489 32.569 18.2577 33.2351C17.2743 33.9012 16.0729 34.2343 14.6536 34.2343ZM14.6655 31.5818C15.4346 31.5818 16.0729 31.3716 16.5804 30.9514C17.096 30.5231 17.4805 29.8927 17.7343 29.0601C17.9959 28.2196 18.1268 27.1807 18.1268 25.9438V24.8494C18.1268 23.6124 17.9959 22.5736 17.7343 21.733C17.4726 20.8925 17.0841 20.2581 16.5685 19.83C16.0611 19.4017 15.4227 19.1877 14.6536 19.1877C13.8923 19.1877 13.25 19.4017 12.7266 19.83C12.2033 20.2502 11.8068 20.8806 11.5372 21.7211C11.2755 22.5617 11.1447 23.6045 11.1447 24.8494V25.9438C11.1447 27.1728 11.2795 28.2077 11.5491 29.0482C11.8187 29.8808 12.2112 30.5112 12.7266 30.9395C13.25 31.3676 13.8963 31.5818 14.6655 31.5818Z" fill="#80385C"/>
<path d="M28.1658 33.9608V20.6508H28.035C27.4878 21.1583 26.8573 21.5628 26.1437 21.8641C25.43 22.1574 24.641 22.3478 23.7767 22.4349V19.7588C24.4745 19.6635 25.1247 19.4773 25.7275 19.1997C26.338 18.9142 26.8811 18.5693 27.357 18.1648C27.8407 17.7525 28.257 17.3006 28.6059 16.8088H31.2584V33.9608H28.1658Z" fill="#80385C"/>
<path d="M14.6537 33.6162C13.2343 33.6162 12.025 33.283 11.0258 32.6169C10.0267 31.943 9.26941 30.9715 8.75398 29.7028C8.23855 28.4341 7.98083 26.9036 7.98083 25.1114V24.4453C7.98083 22.6453 8.23855 21.111 8.75398 19.8423C9.26941 18.5655 10.0227 17.5941 11.0139 16.928C12.0131 16.254 13.2224 15.917 14.6418 15.917C16.0612 15.917 17.2666 16.25 18.2578 16.9161C19.249 17.5822 19.9983 18.5536 20.5058 19.8304C21.0133 21.107 21.267 22.6453 21.267 24.4453V25.1114C21.267 26.9036 21.0133 28.4379 20.5058 29.7147C19.9983 30.9834 19.249 31.9508 18.2578 32.6169C17.2745 33.283 16.0731 33.6162 14.6537 33.6162ZM14.6656 30.9636C15.4348 30.9636 16.0731 30.7535 16.5806 30.3332C17.0961 29.905 17.4806 29.2745 17.7344 28.4419C17.996 27.6015 18.127 26.5626 18.127 25.3257V24.2313C18.127 22.9942 17.996 21.9555 17.7344 21.1148C17.4728 20.2744 17.0842 19.6399 16.5687 19.2118C16.0612 18.7836 15.4229 18.5695 14.6537 18.5695C13.8924 18.5695 13.2501 18.7836 12.7268 19.2118C12.2034 19.6321 11.8069 20.2625 11.5373 21.103C11.2756 21.9436 11.1448 22.9864 11.1448 24.2313V25.3257C11.1448 26.5547 11.2796 27.5896 11.5492 28.4301C11.8188 29.2626 12.2113 29.8931 12.7268 30.3213C13.2501 30.7494 13.8964 30.9636 14.6656 30.9636Z" fill="#CF74A2"/>
<path d="M28.1658 33.3433V20.0334H28.035C27.4878 20.5409 26.8573 20.9453 26.1437 21.2467C25.43 21.5399 24.641 21.7304 23.7767 21.8175V19.1413C24.4745 19.046 25.1247 18.8598 25.7275 18.5822C26.338 18.2967 26.8811 17.9518 27.357 17.5473C27.8407 17.135 28.257 16.6831 28.6059 16.1914H31.2584V33.3433H28.1658Z" fill="#CF74A2"/>
<path fill-rule="evenodd" clip-rule="evenodd" d="M0.213501 29.3828V32.0852C0.213501 36.8617 4.08564 40.7339 8.86215 40.7339H31.4105C36.187 40.7339 40.0591 36.8617 40.0591 32.0854V29.3828C40.0591 34.1593 36.187 38.0315 31.4105 38.0315H8.86215C4.08564 38.0315 0.213501 34.1593 0.213501 29.3828Z" fill="black" fill-opacity="0.2"/>
<path fill-rule="evenodd" clip-rule="evenodd" d="M8.86191 0.887695C4.08539 0.887695 0.213257 4.75982 0.213257 9.53635V9.76428C0.68035 5.42845 4.35181 2.05259 8.81173 2.05259H31.4102C36.1867 2.05259 40.0589 5.92473 40.0589 10.7012V9.53635C40.0589 4.75982 36.1867 0.887695 31.4102 0.887695H8.86191Z" fill="white" fill-opacity="0.3"/>
</g>
<defs>
<clipPath id="clip0_29_2488">
<rect width="40" height="40" fill="white" transform="translate(0.140015 0.830078)"/>
</clipPath>
</defs>
</svg>
