<svg width="40" height="41" viewBox="0 0 40 41" fill="none" xmlns="http://www.w3.org/2000/svg">
<g clip-path="url(#clip0_29_2506)">
<mask id="mask0_29_2506" style="mask-type:luminance" maskUnits="userSpaceOnUse" x="0" y="0" width="40" height="41">
<path d="M31.2471 0.707275H8.6988C3.92229 0.707275 0.0501556 4.57941 0.0501556 9.35592V31.9042C0.0501556 36.6807 3.92229 40.5528 8.6988 40.5528H31.2471C36.0236 40.5528 39.8957 36.6807 39.8957 31.9042V9.35592C39.8957 4.57941 36.0236 0.707275 31.2471 0.707275Z" fill="white"/>
</mask>
<g mask="url(#mask0_29_2506)">
<path d="M0.0501556 9.35592C0.0501556 4.57941 3.92229 0.707275 8.6988 0.707275H31.2469C36.0235 0.707275 39.8956 4.57941 39.8956 9.35592V18.5547V31.904C39.8956 36.6806 36.0235 40.5528 31.2469 40.5528H8.6988C3.92229 40.5528 0.0501556 36.6806 0.0501556 31.9042V9.35592Z" fill="#00A05E"/>
<g filter="url(#filter0_d_29_2506)">
<path d="M0.0501556 29.969H39.4806" stroke="#00804B" stroke-width="0.830114" stroke-linecap="round"/>
</g>
<path d="M4.2008 15.8333H4.2008C4.7872 15.8333 5.26257 16.3086 5.26257 16.895V24.7811C5.26257 25.3675 4.7872 25.8429 4.2008 25.8429H4.2008C3.6144 25.8429 3.13902 25.3675 3.13902 24.7811V16.895C3.13902 16.3086 3.6144 15.8333 4.2008 15.8333Z" stroke="#19C77F" stroke-width="0.46332"/>
<path d="M3.37071 16.8949C3.37071 16.4363 3.74237 16.0647 4.20083 16.0647C4.6593 16.0647 5.03094 16.4363 5.03094 16.8949V24.7809C5.03094 25.2394 4.6593 25.611 4.20083 25.611C3.74237 25.611 3.37071 25.2394 3.37071 24.7809V16.8949Z" fill="black" fill-opacity="0.5"/>
<mask id="mask1_29_2506" style="mask-type:luminance" maskUnits="userSpaceOnUse" x="3" y="16" width="3" height="10">
<path d="M3.37071 16.8949C3.37071 16.4363 3.74237 16.0647 4.20083 16.0647C4.6593 16.0647 5.03094 16.4363 5.03094 16.8949V24.7809C5.03094 25.2394 4.6593 25.611 4.20083 25.611C3.74237 25.611 3.37071 25.2394 3.37071 24.7809V16.8949Z" fill="#1B271D"/>
</mask>
<g mask="url(#mask1_29_2506)">
<path d="M3.06187 16.8952C3.06187 16.2661 3.57182 15.7561 4.20087 15.7561C4.82992 15.7561 5.33987 16.2661 5.33987 16.8952H4.72211C4.72211 16.6073 4.48875 16.3739 4.20087 16.3739C3.91301 16.3739 3.67963 16.6073 3.67963 16.8952H3.06187ZM5.33987 24.7812C5.33987 25.4102 4.82992 25.9202 4.20087 25.9202C3.57182 25.9202 3.06187 25.4102 3.06187 24.7812H3.67963C3.67963 25.0691 3.91301 25.3024 4.20087 25.3024C4.48875 25.3024 4.72211 25.0691 4.72211 24.7812H5.33987ZM4.20087 25.9202C3.57182 25.9202 3.06187 25.4102 3.06187 24.7812V16.8952C3.06187 16.2661 3.57182 15.7561 4.20087 15.7561V16.3739C3.91301 16.3739 3.67963 16.6073 3.67963 16.8952V24.7812C3.67963 25.0691 3.91301 25.3024 4.20087 25.3024V25.9202ZM4.20087 15.7561C4.82992 15.7561 5.33987 16.2661 5.33987 16.8952V24.7812C5.33987 25.4102 4.82992 25.9202 4.20087 25.9202V25.3024C4.48875 25.3024 4.72211 25.0691 4.72211 24.7812V16.8952C4.72211 16.6073 4.48875 16.3739 4.20087 16.3739V15.7561Z" fill="#1B271D"/>
</g>
<path d="M7.55993 15.8333H7.55993C8.14633 15.8333 8.62171 16.3086 8.62171 16.895V24.7811C8.62171 25.3675 8.14633 25.8429 7.55993 25.8429H7.55993C6.97353 25.8429 6.49815 25.3675 6.49815 24.7811V16.895C6.49815 16.3086 6.97353 15.8333 7.55993 15.8333Z" stroke="#19C77F" stroke-width="0.46332"/>
<path d="M6.72984 16.8949C6.72984 16.4363 7.1015 16.0647 7.55996 16.0647C8.01841 16.0647 8.39007 16.4363 8.39007 16.8949V24.7809C8.39007 25.2394 8.01841 25.611 7.55996 25.611C7.1015 25.611 6.72984 25.2394 6.72984 24.7809V16.8949Z" fill="black" fill-opacity="0.5"/>
<mask id="mask2_29_2506" style="mask-type:luminance" maskUnits="userSpaceOnUse" x="6" y="16" width="3" height="10">
<path d="M6.72984 16.8949C6.72984 16.4363 7.1015 16.0647 7.55996 16.0647C8.01841 16.0647 8.39007 16.4363 8.39007 16.8949V24.7809C8.39007 25.2394 8.01841 25.611 7.55996 25.611C7.1015 25.611 6.72984 25.2394 6.72984 24.7809V16.8949Z" fill="#1B271D"/>
</mask>
<g mask="url(#mask2_29_2506)">
<path d="M6.42101 16.8952C6.42101 16.2661 6.93095 15.7561 7.56 15.7561C8.18905 15.7561 8.699 16.2661 8.699 16.8952H8.08124C8.08124 16.6073 7.84788 16.3739 7.56 16.3739C7.27212 16.3739 7.03877 16.6073 7.03877 16.8952H6.42101ZM8.699 24.7812C8.699 25.4102 8.18905 25.9202 7.56 25.9202C6.93095 25.9202 6.42101 25.4102 6.42101 24.7812H7.03877C7.03877 25.0691 7.27212 25.3024 7.56 25.3024C7.84788 25.3024 8.08124 25.0691 8.08124 24.7812H8.699ZM7.56 25.9202C6.93095 25.9202 6.42101 25.4102 6.42101 24.7812V16.8952C6.42101 16.2661 6.93095 15.7561 7.56 15.7561V16.3739C7.27212 16.3739 7.03877 16.6073 7.03877 16.8952V24.7812C7.03877 25.0691 7.27212 25.3024 7.56 25.3024V25.9202ZM7.56 15.7561C8.18905 15.7561 8.699 16.2661 8.699 16.8952V24.7812C8.699 25.4102 8.18905 25.9202 7.56 25.9202V25.3024C7.84788 25.3024 8.08124 25.0691 8.08124 24.7812V16.8952C8.08124 16.6073 7.84788 16.3739 7.56 16.3739V15.7561Z" fill="#1B271D"/>
</g>
<path d="M10.9188 15.8333H10.9188C11.5052 15.8333 11.9806 16.3086 11.9806 16.895V24.7811C11.9806 25.3675 11.5052 25.8429 10.9188 25.8429H10.9188C10.3324 25.8429 9.85704 25.3675 9.85704 24.7811V16.895C9.85704 16.3086 10.3324 15.8333 10.9188 15.8333Z" stroke="#19C77F" stroke-width="0.46332"/>
<path d="M10.0887 16.8949C10.0887 16.4363 10.4604 16.0647 10.9188 16.0647C11.3773 16.0647 11.749 16.4363 11.749 16.8949V24.7809C11.749 25.2394 11.3773 25.611 10.9188 25.611C10.4604 25.611 10.0887 25.2394 10.0887 24.7809V16.8949Z" fill="black" fill-opacity="0.5"/>
<mask id="mask3_29_2506" style="mask-type:luminance" maskUnits="userSpaceOnUse" x="10" y="16" width="2" height="10">
<path d="M10.0887 16.8949C10.0887 16.4363 10.4604 16.0647 10.9188 16.0647C11.3773 16.0647 11.749 16.4363 11.749 16.8949V24.7809C11.749 25.2394 11.3773 25.611 10.9188 25.611C10.4604 25.611 10.0887 25.2394 10.0887 24.7809V16.8949Z" fill="#1B271D"/>
</mask>
<g mask="url(#mask3_29_2506)">
<path d="M9.77989 16.8952C9.77989 16.2661 10.2898 15.7561 10.9189 15.7561C11.5479 15.7561 12.0579 16.2661 12.0579 16.8952H11.4401C11.4401 16.6073 11.2068 16.3739 10.9189 16.3739C10.631 16.3739 10.3977 16.6073 10.3977 16.8952H9.77989ZM12.0579 24.7812C12.0579 25.4102 11.5479 25.9202 10.9189 25.9202C10.2898 25.9202 9.77989 25.4102 9.77989 24.7812H10.3977C10.3977 25.0691 10.631 25.3024 10.9189 25.3024C11.2068 25.3024 11.4401 25.0691 11.4401 24.7812H12.0579ZM10.9189 25.9202C10.2898 25.9202 9.77989 25.4102 9.77989 24.7812V16.8952C9.77989 16.2661 10.2898 15.7561 10.9189 15.7561V16.3739C10.631 16.3739 10.3977 16.6073 10.3977 16.8952V24.7812C10.3977 25.0691 10.631 25.3024 10.9189 25.3024V25.9202ZM10.9189 15.7561C11.5479 15.7561 12.0579 16.2661 12.0579 16.8952V24.7812C12.0579 25.4102 11.5479 25.9202 10.9189 25.9202V25.3024C11.2068 25.3024 11.4401 25.0691 11.4401 24.7812V16.8952C11.4401 16.6073 11.2068 16.3739 10.9189 16.3739V15.7561Z" fill="#1B271D"/>
</g>
<path d="M14.2779 15.8333H14.2779C14.8644 15.8333 15.3397 16.3086 15.3397 16.895V24.7811C15.3397 25.3675 14.8644 25.8429 14.2779 25.8429H14.2779C13.6915 25.8429 13.2162 25.3675 13.2162 24.7811V16.895C13.2162 16.3086 13.6915 15.8333 14.2779 15.8333Z" stroke="#19C77F" stroke-width="0.46332"/>
<path d="M13.4479 16.8949C13.4479 16.4363 13.8195 16.0647 14.278 16.0647C14.7364 16.0647 15.1081 16.4363 15.1081 16.8949V24.7809C15.1081 25.2394 14.7364 25.611 14.278 25.611C13.8195 25.611 13.4479 25.2394 13.4479 24.7809V16.8949Z" fill="black" fill-opacity="0.5"/>
<mask id="mask4_29_2506" style="mask-type:luminance" maskUnits="userSpaceOnUse" x="13" y="16" width="3" height="10">
<path d="M13.4479 16.8949C13.4479 16.4363 13.8195 16.0647 14.278 16.0647C14.7364 16.0647 15.1081 16.4363 15.1081 16.8949V24.7809C15.1081 25.2394 14.7364 25.611 14.278 25.611C13.8195 25.611 13.4479 25.2394 13.4479 24.7809V16.8949Z" fill="#1B271D"/>
</mask>
<g mask="url(#mask4_29_2506)">
<path d="M13.139 16.8952C13.139 16.2661 13.649 15.7561 14.278 15.7561C14.9071 15.7561 15.417 16.2661 15.417 16.8952H14.7993C14.7993 16.6073 14.5659 16.3739 14.278 16.3739C13.9901 16.3739 13.7568 16.6073 13.7568 16.8952H13.139ZM15.417 24.7812C15.417 25.4102 14.9071 25.9202 14.278 25.9202C13.649 25.9202 13.139 25.4102 13.139 24.7812H13.7568C13.7568 25.0691 13.9901 25.3024 14.278 25.3024C14.5659 25.3024 14.7993 25.0691 14.7993 24.7812H15.417ZM14.278 25.9202C13.649 25.9202 13.139 25.4102 13.139 24.7812V16.8952C13.139 16.2661 13.649 15.7561 14.278 15.7561V16.3739C13.9901 16.3739 13.7568 16.6073 13.7568 16.8952V24.7812C13.7568 25.0691 13.9901 25.3024 14.278 25.3024V25.9202ZM14.278 15.7561C14.9071 15.7561 15.417 16.2661 15.417 16.8952V24.7812C15.417 25.4102 14.9071 25.9202 14.278 25.9202V25.3024C14.5659 25.3024 14.7993 25.0691 14.7993 24.7812V16.8952C14.7993 16.6073 14.5659 16.3739 14.278 16.3739V15.7561Z" fill="#1B271D"/>
</g>
<path d="M35.5376 20.8375C35.5376 19.0037 34.051 17.5171 32.2171 17.5171C30.3833 17.5171 28.8967 19.0037 28.8967 20.8375C28.8967 22.6714 30.3833 24.158 32.2171 24.158C34.051 24.158 35.5376 22.6714 35.5376 20.8375Z" fill="#303030" stroke="#19C77F" stroke-width="0.415058"/>
<path d="M30.3493 20.8374C30.3493 19.8059 31.1856 18.9697 32.2171 18.9697C33.2486 18.9697 34.0849 19.8059 34.0849 20.8374C34.0849 21.8689 33.2486 22.7052 32.2171 22.7052C31.1856 22.7052 30.3493 21.8689 30.3493 20.8374Z" fill="#83FF49"/>
<mask id="mask5_29_2506" style="mask-type:luminance" maskUnits="userSpaceOnUse" x="30" y="18" width="5" height="5">
<path d="M30.3493 20.8374C30.3493 19.8059 31.1856 18.9697 32.2171 18.9697C33.2486 18.9697 34.0849 19.8059 34.0849 20.8374C34.0849 21.8689 33.2486 22.7052 32.2171 22.7052C31.1856 22.7052 30.3493 21.8689 30.3493 20.8374Z" fill="#00A05E"/>
</mask>
<g mask="url(#mask5_29_2506)">
<path d="M30.0405 20.8377C30.0405 19.6355 31.015 18.6611 32.2172 18.6611C33.4193 18.6611 34.3939 19.6355 34.3939 20.8377H33.7761C33.7761 19.9768 33.0782 19.2789 32.2172 19.2789C31.3562 19.2789 30.6583 19.9768 30.6583 20.8377H30.0405ZM34.3939 20.8377C34.3939 22.0398 33.4193 23.0143 32.2172 23.0143C31.015 23.0143 30.0405 22.0398 30.0405 20.8377H30.6583C30.6583 21.6987 31.3562 22.3966 32.2172 22.3966C33.0782 22.3966 33.7761 21.6987 33.7761 20.8377H34.3939ZM32.2172 23.0143C31.015 23.0143 30.0405 22.0398 30.0405 20.8377C30.0405 19.6355 31.015 18.6611 32.2172 18.6611V19.2789C31.3562 19.2789 30.6583 19.9768 30.6583 20.8377C30.6583 21.6987 31.3562 22.3966 32.2172 22.3966V23.0143ZM32.2172 18.6611C33.4193 18.6611 34.3939 19.6355 34.3939 20.8377C34.3939 22.0398 33.4193 23.0143 32.2172 23.0143V22.3966C33.0782 22.3966 33.7761 21.6987 33.7761 20.8377C33.7761 19.9768 33.0782 19.2789 32.2172 19.2789V18.6611Z" fill="#00A05E"/>
</g>
<g filter="url(#filter1_d_29_2506)">
<path d="M0.0501556 11.5178H39.4806" stroke="#00804B" stroke-width="0.830114" stroke-linecap="round"/>
</g>
<path fill-rule="evenodd" clip-rule="evenodd" d="M0.073349 29.26V31.9624C0.073349 36.7389 3.94548 40.6111 8.72199 40.6111H31.2703C36.0468 40.6111 39.9189 36.7389 39.9189 31.9624V29.26C39.9189 34.0365 36.0468 37.9087 31.2703 37.9087H8.72199C3.94548 37.9087 0.073349 34.0365 0.073349 29.26Z" fill="black" fill-opacity="0.2"/>
<path fill-rule="evenodd" clip-rule="evenodd" d="M8.72176 0.764893C3.94523 0.764893 0.0731049 4.63702 0.0731049 9.41353V9.64147C0.540199 5.30566 4.21166 1.92979 8.67158 1.92979H31.27C36.0466 1.92979 39.9187 5.80192 39.9187 10.5784V9.41353C39.9187 4.63702 36.0466 0.764893 31.27 0.764893H8.72176Z" fill="white" fill-opacity="0.3"/>
</g>
</g>
<defs>
<filter id="filter0_d_29_2506" x="-0.364899" y="29.554" width="40.2606" height="1.2934" filterUnits="userSpaceOnUse" color-interpolation-filters="sRGB">
<feFlood flood-opacity="0" result="BackgroundImageFix"/>
<feColorMatrix in="SourceAlpha" type="matrix" values="0 0 0 0 0 0 0 0 0 0 0 0 0 0 0 0 0 0 127 0" result="hardAlpha"/>
<feOffset dy="0.46332"/>
<feComposite in2="hardAlpha" operator="out"/>
<feColorMatrix type="matrix" values="0 0 0 0 0.0980392 0 0 0 0 0.780392 0 0 0 0 0.498039 0 0 0 1 0"/>
<feBlend mode="normal" in2="BackgroundImageFix" result="effect1_dropShadow_29_2506"/>
<feBlend mode="normal" in="SourceGraphic" in2="effect1_dropShadow_29_2506" result="shape"/>
</filter>
<filter id="filter1_d_29_2506" x="-0.364899" y="11.1028" width="40.2606" height="1.2934" filterUnits="userSpaceOnUse" color-interpolation-filters="sRGB">
<feFlood flood-opacity="0" result="BackgroundImageFix"/>
<feColorMatrix in="SourceAlpha" type="matrix" values="0 0 0 0 0 0 0 0 0 0 0 0 0 0 0 0 0 0 127 0" result="hardAlpha"/>
<feOffset dy="0.46332"/>
<feComposite in2="hardAlpha" operator="out"/>
<feColorMatrix type="matrix" values="0 0 0 0 0.0980392 0 0 0 0 0.780392 0 0 0 0 0.498039 0 0 0 1 0"/>
<feBlend mode="normal" in2="BackgroundImageFix" result="effect1_dropShadow_29_2506"/>
<feBlend mode="normal" in="SourceGraphic" in2="effect1_dropShadow_29_2506" result="shape"/>
</filter>
<clipPath id="clip0_29_2506">
<rect width="40" height="39.8456" fill="white" transform="translate(0 0.707275)"/>
</clipPath>
</defs>
</svg>
