<svg width="41" height="41" viewBox="0 0 41 41" fill="none" xmlns="http://www.w3.org/2000/svg">
<g clip-path="url(#clip0_29_2475)">
<path d="M0.513611 9.59928C0.513611 4.84113 4.37085 0.983887 9.12901 0.983887H31.5905C36.3486 0.983887 40.206 4.84114 40.206 9.59929V18.7628V32.0608C40.206 36.8189 36.3486 40.6762 31.5905 40.6762H9.12901C4.37085 40.6762 0.513611 36.8189 0.513611 32.0608V9.59928Z" fill="#2797CF"/>
<path d="M19.9708 28.8832C41.9304 15.6543 18.2424 29.956 40.2017 16.7271V32.7989L36.7879 39.1724L19.9708 28.8832Z" fill="#FFFFFE" fill-opacity="0.4"/>
<path d="M0.513311 31.765L0.513306 16.5571L35.8745 38.0857L33.1131 39.8734L3.70644 38.1431L0.513311 31.765Z" fill="#FFFFFE" fill-opacity="0.4"/>
<path opacity="0.1" fill-rule="evenodd" clip-rule="evenodd" d="M0.513801 12.3492L0.513794 10.1577L20.3598 22.365L40.2076 10.1842V12.3758L20.3599 24.5566L0.513801 12.3492Z" fill="black"/>
<path d="M20.4174 22.2599L0.513611 10.1577V9.66653C0.513611 4.87124 4.41471 0.983888 9.22696 0.983888L31.4926 0.983887C36.3495 0.983889 40.2689 4.94104 40.2052 9.78047L40.2001 10.1577L20.4174 22.2599Z" fill="#FFFFFE" fill-opacity="0.4"/>
<path d="M0.611354 8.82666L20.3596 20.9362L40.1198 8.83797L40.181 9.67315V10.3323L20.3596 22.4676L0.538452 10.3323V9.59634L0.611354 8.82666Z" fill="#B1DAEE"/>
<path d="M20.3596 28.5547L0.538452 16.4194V17.9507L33.5822 38.1902L34.4822 37.9268L35.1719 37.6339L21.6015 29.3256L40.181 17.9507V16.4194L20.3596 28.5547Z" fill="#B1DAEE"/>
<path fill-rule="evenodd" clip-rule="evenodd" d="M0.513794 29.3687V32.0608C0.513794 36.819 4.37103 40.6762 9.12918 40.6762H31.5907C36.3489 40.6762 40.2061 36.819 40.2061 32.0608V29.3687C40.2061 34.1268 36.3489 37.984 31.5907 37.984H9.12918C4.37103 37.984 0.513794 34.1268 0.513794 29.3687Z" fill="#2797CF"/>
<path fill-rule="evenodd" clip-rule="evenodd" d="M9.12906 0.983887C4.37092 0.983887 0.513672 4.84113 0.513672 9.59927V9.82633C0.978969 5.50718 4.6363 2.14431 9.07909 2.14431H31.5906C36.3488 2.14431 40.206 6.00155 40.206 10.7597V9.59927C40.206 4.84113 36.3488 0.983887 31.5906 0.983887H9.12906Z" fill="white" fill-opacity="0.3"/>
</g>
<defs>
<clipPath id="clip0_29_2475">
<rect width="40" height="39.6923" fill="white" transform="translate(0.359985 0.983887)"/>
</clipPath>
</defs>
</svg>
